<svg xmlns="http://www.w3.org/2000/svg" xmlns:xlink="http://www.w3.org/1999/xlink" width="222" height="221.999" viewBox="0 0 222 221.999">
    <defs>
        <filter id="Subtração_8" x="0" y="0" width="222" height="221.999" filterUnits="userSpaceOnUse">
            <feOffset dy="3" input="SourceAlpha"/>
            <feGaussianBlur stdDeviation="3" result="blur"/>
            <feFlood flood-opacity="0.161"/>
            <feComposite operator="in" in2="blur"/>
            <feComposite in="SourceGraphic"/>
        </filter>
        <filter id="União_2" x="65.839" y="30" width="102.323" height="162" filterUnits="userSpaceOnUse">
            <feOffset dy="3" input="SourceAlpha"/>
            <feGaussianBlur stdDeviation="3" result="blur-2"/>
            <feFlood flood-opacity="0.161"/>
            <feComposite operator="in" in2="blur-2"/>
            <feComposite in="SourceGraphic"/>
        </filter>
    </defs>
    <g id="logo" transform="translate(9 6)">
        <g transform="matrix(1, 0, 0, 1, -9, -6)" filter="url(#Subtração_8)">
            <path id="Subtração_8-2" data-name="Subtração 8" d="M-398-581a102.737,102.737,0,0,1-20.556-2.073,101.546,101.546,0,0,1-19.147-5.943,102.026,102.026,0,0,1-17.326-9.4,102.72,102.72,0,0,1-15.1-12.455,102.623,102.623,0,0,1-12.455-15.1,101.979,101.979,0,0,1-9.4-17.326,101.49,101.49,0,0,1-5.944-19.147A102.737,102.737,0,0,1-500-683a102.754,102.754,0,0,1,2.073-20.557,101.467,101.467,0,0,1,5.944-19.146,101.994,101.994,0,0,1,9.4-17.327,102.78,102.78,0,0,1,12.455-15.1,102.779,102.779,0,0,1,15.1-12.455,102.083,102.083,0,0,1,17.326-9.4,101.485,101.485,0,0,1,19.147-5.944A102.739,102.739,0,0,1-398-785h.006c0,.168-.006.331-.006.5a19.459,19.459,0,0,0,1.135,6.57c.112.314.234.628.362.936-.306,0-.632-.005-1-.005a95.173,95.173,0,0,0-19.045,1.92,93.968,93.968,0,0,0-17.738,5.506,94.465,94.465,0,0,0-16.052,8.713,95.214,95.214,0,0,0-13.986,11.539,95.211,95.211,0,0,0-11.539,13.986,94.409,94.409,0,0,0-8.713,16.052,94.018,94.018,0,0,0-5.507,17.738A95.239,95.239,0,0,0-492-682.5a95.234,95.234,0,0,0,1.92,19.045,93.992,93.992,0,0,0,5.507,17.738,94.411,94.411,0,0,0,8.713,16.052,95.213,95.213,0,0,0,11.539,13.986,95.213,95.213,0,0,0,13.986,11.539,94.419,94.419,0,0,0,16.052,8.713,93.981,93.981,0,0,0,17.738,5.506A95.175,95.175,0,0,0-397.5-588a95.162,95.162,0,0,0,19.045-1.921,94.009,94.009,0,0,0,17.739-5.506,94.547,94.547,0,0,0,16.052-8.713,95.2,95.2,0,0,0,13.985-11.539,95.164,95.164,0,0,0,11.54-13.986,94.538,94.538,0,0,0,8.713-16.052,94.059,94.059,0,0,0,5.506-17.738A95.235,95.235,0,0,0-303-682.5a95.24,95.24,0,0,0-1.92-19.046c-.281-1.372-.6-2.76-.942-4.125A14.484,14.484,0,0,0-301.5-705a14.529,14.529,0,0,0,3.051-.322A102.594,102.594,0,0,1-296-683a102.739,102.739,0,0,1-2.072,20.556,101.468,101.468,0,0,1-5.944,19.147,101.976,101.976,0,0,1-9.4,17.326,102.676,102.676,0,0,1-12.455,15.1,102.717,102.717,0,0,1-15.1,12.455,102,102,0,0,1-17.327,9.4,101.516,101.516,0,0,1-19.147,5.943A102.741,102.741,0,0,1-398-581Zm.5-12a90.127,90.127,0,0,1-18.037-1.819,89.043,89.043,0,0,1-16.8-5.215,89.566,89.566,0,0,1-15.2-8.252,90.166,90.166,0,0,1-13.245-10.929,90.105,90.105,0,0,1-10.929-13.246,89.459,89.459,0,0,1-8.252-15.2,89.116,89.116,0,0,1-5.215-16.8A90.192,90.192,0,0,1-487-682.5a90.2,90.2,0,0,1,1.818-18.038,89.1,89.1,0,0,1,5.215-16.8,89.44,89.44,0,0,1,8.252-15.2,90.105,90.105,0,0,1,10.929-13.246,90.169,90.169,0,0,1,13.245-10.929,89.59,89.59,0,0,1,15.2-8.252,89.091,89.091,0,0,1,16.8-5.215A90.125,90.125,0,0,1-397.5-772c1.36,0,2.744.031,4.111.093A19.644,19.644,0,0,0-383-765.522v.023a23.358,23.358,0,0,0,1.847,9.147,23.423,23.423,0,0,0,5.036,7.47,23.416,23.416,0,0,0,7.47,5.036A23.359,23.359,0,0,0-359.5-742c.212,0,.416,0,.551-.006a21.415,21.415,0,0,0,6.748,14.194A21.417,21.417,0,0,0-337.5-722c.656,0,1.323-.03,1.982-.09a16.089,16.089,0,0,0,5.606,8.65,15.957,15.957,0,0,0,4.575,2.527A15.951,15.951,0,0,0-320-710a15.883,15.883,0,0,0,6.492-1.372,14.631,14.631,0,0,0,1.288,1.635,89.323,89.323,0,0,1,2.4,9.2A90.2,90.2,0,0,1-308-682.5a90.194,90.194,0,0,1-1.818,18.037,89.055,89.055,0,0,1-5.215,16.8,89.462,89.462,0,0,1-8.252,15.2,90.1,90.1,0,0,1-10.929,13.246,90.167,90.167,0,0,1-13.245,10.929,89.578,89.578,0,0,1-15.2,8.252,89.063,89.063,0,0,1-16.8,5.215A90.145,90.145,0,0,1-397.5-593Zm83.537-147.822h0a15.958,15.958,0,0,0-2.128-.7c.06-.645.09-1.311.09-1.981v-.176c.706.954,1.392,1.914,2.039,2.853Z" transform="translate(509 791)" fill="#6f41a4"/>
        </g>
        <g transform="matrix(1, 0, 0, 1, -9, -6)" filter="url(#União_2)">
            <path id="União_2-2" data-name="União 2" d="M-435-628v-16h-11v16h-13v-16h-14.6V-755.668H-459V-772h13v16.332h11V-772h13v16.91a39.875,39.875,0,0,1,10.823,2.812,26.4,26.4,0,0,1,12.111,10.435,27.512,27.512,0,0,1,4.38,14.739,25.318,25.318,0,0,1-3.885,13.483A27.736,27.736,0,0,1-410.3-703.414q10.132,2.97,15.577,10.13a27.135,27.135,0,0,1,5.447,16.91,32.622,32.622,0,0,1-3.314,14.587,28.24,28.24,0,0,1-8.188,10.4A34.172,34.172,0,0,1-413-645.866a58.784,58.784,0,0,1-9,1.479V-628Zm-23.823-29.177h27.8a63.978,63.978,0,0,0,10.055-.534,24.084,24.084,0,0,0,8.531-3.047,16.168,16.168,0,0,0,5.637-6.208,19.426,19.426,0,0,0,2.21-9.408,18.553,18.553,0,0,0-3.2-10.854,16.871,16.871,0,0,0-8.874-6.475q-5.674-1.867-16.339-1.867h-25.823Zm0-51.569h24.147q9.827,0,14.091-1.294a15.664,15.664,0,0,0,8.493-5.561,16.016,16.016,0,0,0,2.857-9.75,17.958,17.958,0,0,0-2.666-9.788,13.5,13.5,0,0,0-7.618-5.789q-4.95-1.562-16.986-1.562h-22.319Z" transform="translate(548.44 808)" fill="#fff"/>
        </g>
    </g>
</svg>
